<svg width="36" height="24" viewBox="0 0 36 24" fill="none" xmlns="http://www.w3.org/2000/svg">
<rect width="36" height="24" rx="2.25" fill="white"/>
<path d="M21.4115 18.3974H14.8496V6.60449H21.4115V18.3974Z" fill="#6C6BBD"/>
<path d="M15.2695 12.5C15.2695 10.1078 16.3896 7.97683 18.1338 6.60357C16.8583 5.59937 15.2485 5 13.499 5C9.35733 5 6 8.35781 6 12.5C6 16.6422 9.35733 20 13.499 20C15.2485 20 16.8583 19.4006 18.1338 18.3964C16.3896 17.0232 15.2695 14.8922 15.2695 12.5Z" fill="#EB001B"/>
<path d="M30.2612 12.5C30.2612 16.6422 26.9039 20 22.7622 20C21.0127 20 19.4029 19.4006 18.127 18.3964C19.8717 17.0232 20.9917 14.8922 20.9917 12.5C20.9917 10.1078 19.8717 7.97683 18.127 6.60357C19.4029 5.59937 21.0127 5 22.7622 5C26.9039 5 30.2612 8.35781 30.2612 12.5Z" fill="#0099DF"/>
</svg>
